<svg width="70" height="56" viewBox="0 0 70 56" fill="none" xmlns="http://www.w3.org/2000/svg">
<path d="M66.28 55H3.72C2.224 55 1 53.785 1 52.3V17.2C1 15.715 2.224 14.5 3.72 14.5H66.28C67.776 14.5 69 15.715 69 17.2V52.3C69 53.785 67.776 55 66.28 55Z" stroke="#00ADEE" stroke-width="2" stroke-miterlimit="10" stroke-linecap="round" stroke-linejoin="round"/>
<path d="M6.44019 14.5V10.45C6.44019 8.965 7.66419 7.75 9.16019 7.75H60.8402C62.3362 7.75 63.5602 8.965 63.5602 10.45V14.5" stroke="#00ADEE" stroke-width="2" stroke-miterlimit="10" stroke-linecap="round" stroke-linejoin="round"/>
<path d="M12.0161 7.75V3.7C12.0161 2.215 13.2401 1 14.7361 1H55.4001C56.8961 1 58.1201 2.215 58.1201 3.7V7.75" stroke="#00ADEE" stroke-width="2" stroke-miterlimit="10" stroke-linecap="round" stroke-linejoin="round"/>
<path d="M42.48 36.1L30.24 43.12C29.288 43.66 28.2 42.985 28.2 41.905V27.865C28.2 26.785 29.288 26.11 30.24 26.65L42.48 33.67C43.432 34.21 43.432 35.56 42.48 36.1Z" stroke="#00ADEE" stroke-width="2" stroke-miterlimit="10" stroke-linecap="round" stroke-linejoin="round"/>
</svg>
