<svg width="42" height="34" viewBox="0 0 42 34" fill="none" xmlns="http://www.w3.org/2000/svg">
<path d="M39.4 23.4H2.6C1.72 23.4 1 24.12 1 25V31.4C1 32.28 1.72 33 2.6 33H39.4C40.28 33 41 32.28 41 31.4V25C41 24.12 40.28 23.4 39.4 23.4Z" stroke="white" stroke-width="1.5" stroke-miterlimit="10" stroke-linecap="round" stroke-linejoin="round"/>
<path d="M12.44 12.2H9.88005C9.32005 12.2 8.84005 12.44 8.52005 12.92L1.80005 23.4" stroke="white" stroke-width="1.5" stroke-miterlimit="10" stroke-linecap="round" stroke-linejoin="round"/>
<path d="M40.2001 23.4L33.4801 12.92C33.1601 12.44 32.6801 12.2 32.1201 12.2H29.5601" stroke="white" stroke-width="1.5" stroke-miterlimit="10" stroke-linecap="round" stroke-linejoin="round"/>
<path d="M20.9999 18.76C25.9042 18.76 29.8799 14.7843 29.8799 9.88C29.8799 4.97571 25.9042 1 20.9999 1C16.0956 1 12.1199 4.97571 12.1199 9.88C12.1199 14.7843 16.0956 18.76 20.9999 18.76Z" stroke="white" stroke-width="1.5" stroke-miterlimit="10" stroke-linecap="round" stroke-linejoin="round"/>
<path d="M17.72 11L19.16 12.44L24.28 7.32001" stroke="white" stroke-width="1.5" stroke-miterlimit="10" stroke-linecap="round" stroke-linejoin="round"/>
<path d="M5.3999 28.2H20.9999" stroke="white" stroke-width="1.5" stroke-miterlimit="10" stroke-linecap="round" stroke-linejoin="round"/>
<path d="M35.6398 30.52C36.9211 30.52 37.9598 29.4813 37.9598 28.2C37.9598 26.9187 36.9211 25.88 35.6398 25.88C34.3585 25.88 33.3198 26.9187 33.3198 28.2C33.3198 29.4813 34.3585 30.52 35.6398 30.52Z" stroke="white" stroke-width="1.5" stroke-miterlimit="10" stroke-linecap="round" stroke-linejoin="round"/>
</svg>
